<svg width="327" height="200" viewBox="0 0 327 200" fill="none" xmlns="http://www.w3.org/2000/svg">
<path d="M100.44 165.78L89.7999 156.53L80.1699 167.61L87.5599 174L89.2099 172.11L89.7499 175.91L103 187.49C104.222 186.085 105.037 184.372 105.356 182.537C105.675 180.702 105.486 178.815 104.81 177.08L100.44 165.78Z" fill="black"/>
<path d="M102.12 170.09L98.5698 171.06" stroke="#908E98" stroke-width="1.5" stroke-linecap="round" stroke-linejoin="round"/>
<path d="M103.89 173.66L100.34 174.63" stroke="#908E98" stroke-width="1.5" stroke-linecap="round" stroke-linejoin="round"/>
<path d="M96.2099 169.65C94.8099 170.15 93.3699 169.65 92.9999 168.65C92.6299 167.65 93.4599 166.34 94.8599 165.85C96.2599 165.36 100.24 166.09 100.24 166.09C100.24 166.09 97.6099 169.16 96.2099 169.65Z" stroke="#908E98" stroke-width="1.5" stroke-linecap="round" stroke-linejoin="round"/>
<path d="M145.17 113.61H131.08V128.29H140.87V125.78L143.77 128.29H161.38C161.373 126.435 160.861 124.618 159.899 123.032C158.937 121.446 157.562 120.153 155.92 119.29L145.17 113.61Z" fill="black"/>
<path d="M149.27 115.76L147.23 118.82" stroke="#908E98" stroke-width="1.5" stroke-linecap="round" stroke-linejoin="round"/>
<path d="M152.95 117.29L150.91 120.35" stroke="#908E98" stroke-width="1.5" stroke-linecap="round" stroke-linejoin="round"/>
<path d="M32.2201 120.89L14.05 125.54" stroke="#B17153" stroke-width="6" stroke-linecap="round" stroke-linejoin="round"/>
<path d="M35.96 121.82L17.79 126.47" stroke="#B17153" stroke-width="6" stroke-linecap="round" stroke-linejoin="round"/>
<path d="M16.42 128.54C15.9826 128.336 15.6086 128.017 15.3375 127.617C15.0664 127.217 14.9083 126.752 14.88 126.27C14.83 125.36 15.45 124.27 17.62 123.69" stroke="black" stroke-width="1.5" stroke-linecap="round" stroke-linejoin="round"/>
<path d="M116.18 128.33H66.2501C62.7509 128.327 59.396 126.936 56.9227 124.46C54.4494 121.985 53.0601 118.629 53.0601 115.13V75.21L77.0001 63.92L86.6001 66.75L116.18 128.33Z" fill="#B17153"/>
<path d="M116.18 128.33H66.2501C62.7509 128.327 59.396 126.936 56.9227 124.46C54.4494 121.985 53.0601 118.629 53.0601 115.13V75.21L77.0001 63.92L86.6001 66.75L116.18 128.33Z" fill="#F43939"/>
<path d="M92.8101 111.03L126.37 77.48L140.57 119.06" stroke="#F43939" stroke-width="30" stroke-linejoin="round"/>
<path d="M125.14 99.0701L112.01 112.19" stroke="black" stroke-width="1.5" stroke-miterlimit="10" stroke-linecap="round"/>
<path d="M130.38 38.69C128.5 37.4461 126.203 36.9982 123.993 37.4443C121.783 37.8903 119.841 39.1941 118.59 41.07C109.41 54.88 92.59 59.35 89.18 60.07H65.24C61.6467 60.0724 58.1323 61.1242 55.1283 63.096C52.1243 65.0679 49.7615 67.8741 48.33 71.1699L24.51 125C24.0513 126.037 23.8032 127.156 23.78 128.29H41.65L63.89 78C64.0023 77.7351 64.1904 77.5093 64.4306 77.351C64.6708 77.1927 64.9524 77.1088 65.24 77.11H90.06C90.5557 77.1184 91.0511 77.0816 91.54 77C92.64 76.81 118.45 72 132.75 50.49C133.371 49.56 133.802 48.5167 134.018 47.4199C134.235 46.3231 134.233 45.1944 134.013 44.0983C133.793 43.0021 133.359 41.9602 132.735 41.0322C132.112 40.1041 131.312 39.3082 130.38 38.69Z" fill="#B07156"/>
<path d="M128 129H174" stroke="#908E98" stroke-width="1.5" stroke-miterlimit="10" stroke-linecap="round"/>
<path d="M129.79 49.7901C133.964 45.235 137.528 40.1556 140.39 34.6801" stroke="#B17153" stroke-width="5" stroke-linecap="round" stroke-linejoin="round"/>
<path d="M138.35 29C136.082 35.0206 132.726 40.5729 128.45 45.38" stroke="#B17153" stroke-width="5" stroke-linecap="round" stroke-linejoin="round"/>
<path d="M140.58 29.6901C139.709 32.1629 138.611 34.5497 137.3 36.8201" stroke="black" stroke-width="1.5" stroke-miterlimit="10" stroke-linecap="round"/>
<path d="M135.09 24.88C135.09 24.88 131.09 36.61 127.01 41.45" stroke="#B17153" stroke-width="5" stroke-linecap="round" stroke-linejoin="round"/>
<path d="M137.3 25.63C137.22 25.87 136.18 28.93 134.62 32.56" stroke="black" stroke-width="1.5" stroke-miterlimit="10" stroke-linecap="round"/>
<path d="M129.38 26.3199C128.419 31.6478 126.538 36.7676 123.82 41.4499" stroke="#B17153" stroke-width="5" stroke-linecap="round" stroke-linejoin="round"/>
<path d="M131.69 26.6901C131.368 28.5174 130.937 30.3239 130.4 32.1001" stroke="black" stroke-width="1.5" stroke-miterlimit="10" stroke-linecap="round"/>
<path d="M120.14 31.36C120.14 31.36 123 40.11 120.83 46.8" stroke="#B17153" stroke-width="6" stroke-linecap="round" stroke-linejoin="round"/>
<path d="M47 95.53L56.1 74.6C56.8766 72.8206 58.1544 71.3057 59.7774 70.2402C61.4004 69.1748 63.2985 68.6048 65.24 68.6H90.06C96.2978 67.2596 102.296 64.9803 107.85 61.84" stroke="#EEEEEF" stroke-width="17.2" stroke-linejoin="round"/>
<path d="M84.1599 108L115.7 122.54C116.059 122.704 116.38 122.943 116.641 123.24C116.902 123.537 117.097 123.886 117.213 124.264C117.329 124.642 117.364 125.04 117.315 125.432C117.266 125.825 117.135 126.202 116.93 126.54L94.7499 163.54" stroke="#F43939" stroke-width="30" stroke-miterlimit="10"/>
<path d="M95.9199 133.75L100.42 126.25" stroke="black" stroke-width="1.5" stroke-miterlimit="10" stroke-linecap="round"/>
<path d="M122.58 109.75C126.038 111.346 128.852 114.067 130.563 117.469C132.274 120.871 132.78 124.753 132 128.48" stroke="black" stroke-width="1.5" stroke-miterlimit="10" stroke-linecap="round"/>
<path d="M69.2201 82.36C71.5501 71.66 68.2201 64.03 65.6501 60.13H65.2401C63.5932 60.1316 61.9544 60.3604 60.3701 60.81C61.7901 62.45 67.2001 69.65 64.6501 81.37L69.2201 82.36Z" fill="#F43939"/>
<path d="M87.58 82.36C89.251 74.7712 87.9938 66.8313 84.06 60.13H78.49C80.6978 63.1517 82.2411 66.6065 83.0184 70.2673C83.7957 73.928 83.7894 77.7119 83 81.37L87.58 82.36Z" fill="#F43939"/>
<path d="M63.5497 45.8856C66.6989 43.54 67.8878 39.8073 66.2053 37.5484C64.5228 35.2895 60.6059 35.3598 57.4567 37.7054C54.3076 40.051 53.1186 43.7837 54.8011 46.0426C56.4836 48.3015 60.4005 48.2313 63.5497 45.8856Z" fill="black"/>
<path d="M66.3501 42.11C68.3936 42.11 70.0501 40.4534 70.0501 38.41C70.0501 36.3665 68.3936 34.71 66.3501 34.71C64.3067 34.71 62.6501 36.3665 62.6501 38.41C62.6501 40.4534 64.3067 42.11 66.3501 42.11Z" fill="#F43939"/>
<path d="M32.5606 73.0581C36.3295 71.956 38.7439 68.871 37.9534 66.1676C37.1628 63.4642 33.4667 62.166 29.6977 63.2681C25.9288 64.3702 23.5144 67.4552 24.3049 70.1587C25.0955 72.8621 28.7916 74.1603 32.5606 73.0581Z" fill="black"/>
<path d="M45.8457 64.7194C48.6224 61.9428 49.2587 58.0773 47.267 56.0856C45.2753 54.0939 41.4099 54.7303 38.6332 57.5069C35.8566 60.2835 35.2203 64.149 37.212 66.1407C39.2036 68.1323 43.0691 67.496 45.8457 64.7194Z" fill="black"/>
<path d="M54.8833 54.0573C57.3571 50.9945 57.5816 47.073 55.3846 45.2985C53.1876 43.524 49.4011 44.5685 46.9273 47.6313C44.4534 50.6942 44.229 54.6156 46.426 56.3901C48.623 58.1646 52.4095 57.1202 54.8833 54.0573Z" fill="black"/>
<path d="M77 31.82H78.39C80.8319 31.8146 83.1761 32.7782 84.9084 34.4992C86.6406 36.2202 87.6194 38.5581 87.63 41V50.68C87.63 52.9237 86.7387 55.0755 85.1522 56.6621C83.5656 58.2486 81.4138 59.14 79.17 59.14H67.79V41C67.8006 38.5633 68.7753 36.23 70.5011 34.5098C72.2268 32.7897 74.5634 31.8226 77 31.82Z" fill="#B17153"/>
<path d="M67.7902 44.3099H79.7202V61.5099C79.7202 63.1012 79.0881 64.6274 77.9629 65.7526C76.8376 66.8778 75.3115 67.5099 73.7202 67.5099C72.1289 67.5099 70.6028 66.8778 69.4776 65.7526C68.3524 64.6274 67.7202 63.1012 67.7202 61.5099V44.3099H67.7902Z" fill="#B17153"/>
<path d="M78.7401 30.22H75.1701C72.3641 30.22 69.673 31.3346 67.6889 33.3188C65.7048 35.3029 64.5901 37.994 64.5901 40.8V53C64.5901 53.8487 64.9272 54.6626 65.5274 55.2627C66.1275 55.8628 66.9414 56.2 67.7901 56.2L69.7901 50.65V46.65C70.6836 46.6479 71.5475 46.3294 72.2285 45.7509C72.9095 45.1724 73.3635 44.3714 73.5101 43.49L73.7901 40.7L89.3001 43.87V40.87C89.3093 39.4764 89.0431 38.0947 88.5168 36.8043C87.9905 35.5139 87.2144 34.3402 86.2332 33.3506C85.2519 32.361 84.0849 31.575 82.799 31.0377C81.5131 30.5005 80.1337 30.2226 78.7401 30.22Z" fill="black"/>
<path d="M67.7902 53.23C70.2037 53.23 72.1602 51.2735 72.1602 48.86C72.1602 46.4465 70.2037 44.49 67.7902 44.49C65.3767 44.49 63.4202 46.4465 63.4202 48.86C63.4202 51.2735 65.3767 53.23 67.7902 53.23Z" fill="#B17153"/>
<path d="M67.6001 47.01L69.5001 48.9" stroke="black" stroke-width="1.5" stroke-miterlimit="10" stroke-linecap="round"/>
<path d="M82.08 47.2899C82.275 48.8386 82.9459 50.2887 84 51.4399L82 51.8899" stroke="black" stroke-width="1.5" stroke-linecap="round" stroke-linejoin="round"/>
<path d="M81.2102 54.2L77.2102 52.48C77.2102 52.48 76.4602 55.22 78.1302 55.59C79.8002 55.96 81.2102 54.2 81.2102 54.2Z" fill="white"/>
<path d="M79.1301 48.7299C79.5278 48.7299 79.8502 48.4076 79.8502 48.0099C79.8502 47.6123 79.5278 47.2899 79.1301 47.2899C78.7325 47.2899 78.4102 47.6123 78.4102 48.0099C78.4102 48.4076 78.7325 48.7299 79.1301 48.7299Z" fill="black"/>
<path d="M85.2901 48.7299C85.6877 48.7299 86.0101 48.4076 86.0101 48.0099C86.0101 47.6123 85.6877 47.2899 85.2901 47.2899C84.8924 47.2899 84.5701 47.6123 84.5701 48.0099C84.5701 48.4076 84.8924 48.7299 85.2901 48.7299Z" fill="black"/>
<path d="M79.8601 44.7999L77.3901 45.6399" stroke="black" stroke-width="1.5" stroke-linecap="round" stroke-linejoin="round"/>
<path d="M86.0202 45.47L84.2002 44.65" stroke="black" stroke-width="1.5" stroke-linecap="round" stroke-linejoin="round"/>
<path d="M27.2901 69.49L22.8301 78.59C22.7519 78.7457 22.6319 78.8766 22.4836 78.9681C22.3352 79.0596 22.1644 79.1081 21.9901 79.1081C21.8158 79.1081 21.645 79.0596 21.4966 78.9681C21.3483 78.8766 21.2283 78.7457 21.1501 78.59L16.3301 68.78C16.2568 68.6251 16.2272 68.4532 16.2446 68.2828C16.2619 68.1123 16.3255 67.9499 16.4284 67.813C16.5314 67.676 16.6698 67.5699 16.8287 67.5059C16.9876 67.4419 17.161 67.4226 17.3301 67.45L27.2901 69.49Z" fill="black"/>
<path d="M93.99 99.74L106.62 103.84" stroke="black" stroke-width="1.5" stroke-miterlimit="10" stroke-linecap="round"/>
<path d="M95.8899 86.0701L104.01 102.99" stroke="black" stroke-width="1.5" stroke-miterlimit="10" stroke-linecap="round"/>
<path d="M90.67 91.34L83.81 93.97L75.14 91.73L72.55 84.79H88.22L90.67 91.34Z" stroke="#F88888" stroke-width="1.5" stroke-linecap="round" stroke-linejoin="round"/>
<path d="M77.3401 98.67C76.6001 105.01 73.2668 108.343 67.3401 108.67" stroke="#F88888" stroke-width="1.5" stroke-linecap="round" stroke-linejoin="round"/>
<path d="M86.6299 150.56L104.31 160.83" stroke="#EA8D8B" stroke-width="1.5" stroke-linecap="round" stroke-linejoin="round"/>
<path d="M151.19 107.33L135.38 112.71" stroke="#EA8D8B" stroke-width="1.5" stroke-linecap="round" stroke-linejoin="round"/>
<path d="M50.05 92.28L41.05 88.65" stroke="#DBDBDE" stroke-width="1.5" stroke-linecap="round" stroke-linejoin="round"/>
<path d="M103.58 62.71L100.11 56.46" stroke="#DBDBDE" stroke-width="1.5" stroke-linecap="round" stroke-linejoin="round"/>
<path d="M123.82 34.6801L124.15 36.8201C126.6 36.8201 127.85 37.6101 128.32 39.6801" stroke="black" stroke-width="1.5" stroke-linecap="round" stroke-linejoin="round"/>
<path d="M18.68 128.33H32L40.24 126.64C41.0197 126.476 41.7022 126.008 42.1373 125.34C42.5723 124.673 42.7244 123.86 42.56 123.08C42.3955 122.3 41.9281 121.618 41.2604 121.183C40.5928 120.748 39.7797 120.596 39 120.76L20.89 124.47C20.1196 124.638 19.4464 125.103 19.016 125.763C18.5856 126.424 18.4325 127.227 18.59 128C18.61 128.12 18.65 128.22 18.68 128.33Z" fill="#B17153"/>
<path d="M19 128C18.8938 127.609 18.8699 127.201 18.9301 126.8C18.9902 126.4 19.1329 126.016 19.3492 125.674C19.5655 125.332 19.8506 125.038 20.1865 124.812C20.5223 124.586 20.9015 124.432 21.3 124.36L26.88 123" stroke="black" stroke-width="1.5" stroke-linecap="round" stroke-linejoin="round"/>
<path d="M4 129H95" stroke="#908E98" stroke-width="1.5" stroke-miterlimit="10" stroke-linecap="round"/>
<path d="M67.98 80.95C68.825 80.95 69.51 80.265 69.51 79.42C69.51 78.575 68.825 77.89 67.98 77.89C67.135 77.89 66.45 78.575 66.45 79.42C66.45 80.265 67.135 80.95 67.98 80.95Z" fill="#F88888"/>
<path d="M85.8401 80.95C86.6851 80.95 87.3701 80.265 87.3701 79.42C87.3701 78.575 86.6851 77.89 85.8401 77.89C84.9951 77.89 84.3101 78.575 84.3101 79.42C84.3101 80.265 84.9951 80.95 85.8401 80.95Z" fill="#F88888"/>
<path d="M234.19 111.03L200.63 77.48L184.21 125.56" stroke="#F3B496" stroke-width="20" stroke-linejoin="round"/>
<path d="M186.09 125.08C180.76 125.08 176.34 123.08 175.39 120.55L167.07 124.55C166.314 124.91 165.676 125.477 165.23 126.185C164.784 126.893 164.548 127.713 164.55 128.55H194L196.51 121.25C195.08 123.45 191 125.08 186.09 125.08Z" fill="black"/>
<path d="M294.78 120.89L312.95 125.54" stroke="#F3B496" stroke-width="6" stroke-linecap="round" stroke-linejoin="round"/>
<path d="M291.04 121.82L309.21 126.47" stroke="#F3B496" stroke-width="6" stroke-linecap="round" stroke-linejoin="round"/>
<path d="M310.58 128.54C311.017 128.336 311.391 128.017 311.662 127.617C311.933 127.217 312.091 126.752 312.12 126.27C312.17 125.36 311.55 124.27 309.38 123.69" stroke="black" stroke-width="1.5" stroke-linecap="round" stroke-linejoin="round"/>
<path d="M237.39 72.99L230.99 86.33L270.21 86.66L262.27 70.99L237.39 72.99Z" fill="black"/>
<path d="M231 86.3301L210.83 128.33H260.76C264.259 128.327 267.614 126.936 270.087 124.46C272.561 121.985 273.95 118.629 273.95 115.13V86.3301H231Z" fill="#F88888"/>
<path d="M199 129H153" stroke="#908E98" stroke-width="1.5" stroke-miterlimit="10" stroke-linecap="round"/>
<path d="M197.21 49.7901C193.036 45.235 189.472 40.1556 186.61 34.6801" stroke="#F3B496" stroke-width="5" stroke-linecap="round" stroke-linejoin="round"/>
<path d="M188.65 29C190.918 35.0206 194.274 40.5729 198.55 45.38" stroke="#F3B496" stroke-width="5" stroke-linecap="round" stroke-linejoin="round"/>
<path d="M186.42 29.6901C187.291 32.1629 188.389 34.5497 189.7 36.8201" stroke="black" stroke-width="1.5" stroke-miterlimit="10" stroke-linecap="round"/>
<path d="M191.91 24.88C191.91 24.88 195.91 36.61 199.99 41.45" stroke="#F3B496" stroke-width="5" stroke-linecap="round" stroke-linejoin="round"/>
<path d="M189.7 25.63C189.78 25.87 190.82 28.93 192.38 32.56" stroke="black" stroke-width="1.5" stroke-miterlimit="10" stroke-linecap="round"/>
<path d="M197.62 26.3201C198.581 31.6479 200.463 36.7677 203.18 41.4501" stroke="#F3B496" stroke-width="5" stroke-linecap="round" stroke-linejoin="round"/>
<path d="M195.31 26.6901C195.632 28.5174 196.063 30.3239 196.6 32.1001" stroke="black" stroke-width="1.5" stroke-miterlimit="10" stroke-linecap="round"/>
<path d="M206.86 31.36C206.86 31.36 204 40.11 206.17 46.8" stroke="#F3B496" stroke-width="6" stroke-linecap="round" stroke-linejoin="round"/>
<path d="M242.84 108L211.3 122.49C210.94 122.654 210.62 122.893 210.359 123.19C210.098 123.487 209.903 123.836 209.787 124.214C209.671 124.592 209.636 124.99 209.685 125.382C209.733 125.775 209.865 126.152 210.07 126.49L233.4 165.08" stroke="#F3B496" stroke-width="20" stroke-miterlimit="10"/>
<path d="M286.75 126.64L294.99 128.33H308.32C308.32 128.22 308.39 128.12 308.41 128.01C308.489 127.624 308.491 127.226 308.416 126.839C308.341 126.452 308.191 126.084 307.973 125.755C307.756 125.426 307.476 125.144 307.149 124.923C306.823 124.703 306.456 124.549 306.07 124.47L288 120.76C287.22 120.6 286.409 120.755 285.744 121.193C285.079 121.631 284.615 122.315 284.455 123.095C284.294 123.875 284.45 124.686 284.888 125.351C285.326 126.016 286.01 126.48 286.79 126.64H286.75Z" fill="#F3B496"/>
<path d="M233.06 164.18C228.77 166.8 224.21 167.33 222.13 165.64L217.45 173.04C217.026 173.727 216.802 174.518 216.802 175.325C216.802 176.132 217.026 176.923 217.45 177.61L242.29 162.46C242.403 162.391 242.501 162.301 242.578 162.195C242.656 162.088 242.711 161.967 242.742 161.839C242.773 161.71 242.778 161.577 242.757 161.447C242.736 161.317 242.689 161.192 242.62 161.08L239.42 155.83C239.46 158.4 237 161.79 233.06 164.18Z" fill="black"/>
<path d="M230 94H273" stroke="#F43939" stroke-width="1.5" stroke-linecap="round" stroke-linejoin="round"/>
<path d="M236 86.4301V94.0001" stroke="#F43939" stroke-width="1.5" stroke-linejoin="round"/>
<path d="M242.84 108L211.3 122.49C210.94 122.654 210.62 122.893 210.359 123.19C210.098 123.487 209.903 123.836 209.787 124.214C209.671 124.592 209.636 124.99 209.685 125.382C209.733 125.775 209.865 126.152 210.07 126.49L221.38 145.34" stroke="#F88888" stroke-width="30" stroke-miterlimit="10"/>
<path d="M234.19 111.03L200.63 77.48L191.76 103.45" stroke="#F88888" stroke-width="30" stroke-linejoin="round"/>
<path d="M303.22 128.33C303.197 127.196 302.949 126.078 302.49 125.04L278.69 71.2C277.252 67.9063 274.884 65.1036 271.877 63.1355C268.87 61.1674 265.354 60.1195 261.76 60.12H237.83C234.42 59.34 217.56 54.83 208.41 41.12C207.792 40.1902 206.997 39.3913 206.07 38.7688C205.144 38.1462 204.104 37.7123 203.009 37.4918C201.915 37.2712 200.788 37.2684 199.692 37.4834C198.597 37.6984 197.555 38.1271 196.625 38.745C194.747 39.9929 193.442 41.9355 192.997 44.1456C192.551 46.3557 193.002 48.6523 194.25 50.53C208.55 72 234.36 76.8 235.46 77C235.948 77.0884 236.444 77.1319 236.94 77.13H261.76C262.052 77.1307 262.338 77.2185 262.58 77.3824C262.823 77.5463 263.01 77.7788 263.12 78.05L285.35 128.34L303.22 128.33Z" fill="#F3B496"/>
<path d="M274.33 82.37L270.9 74.6C270.123 72.8206 268.846 71.3057 267.223 70.2403C265.6 69.1748 263.701 68.6049 261.76 68.6H236.94C233.277 67.8411 229.696 66.7258 226.25 65.27" stroke="black" stroke-width="17.2" stroke-linejoin="round"/>
<path d="M238.35 64.0001C238.122 64.3753 237.821 64.701 237.465 64.9578C237.109 65.2146 236.705 65.3973 236.277 65.4951C235.849 65.5929 235.406 65.6038 234.974 65.5272C234.541 65.4505 234.129 65.2878 233.761 65.0488C233.392 64.8098 233.076 64.4993 232.83 64.1357C232.584 63.7721 232.413 63.3628 232.328 62.932C232.243 62.5013 232.246 62.0579 232.335 61.6282C232.425 61.1984 232.6 60.791 232.85 60.4301" fill="#908E98"/>
<path d="M278.78 67.67C278.968 68.5201 278.811 69.4101 278.343 70.1443C277.876 70.8785 277.135 71.3967 276.285 71.585C275.435 71.7733 274.545 71.6163 273.811 71.1484C273.077 70.6805 272.558 69.9401 272.37 69.09" fill="#908E98"/>
<path d="M238.07 82.1C237.722 82.3542 237.327 82.5372 236.909 82.6388C236.49 82.7404 236.055 82.7585 235.629 82.6921C235.204 82.6257 234.795 82.4761 234.427 82.2519C234.059 82.0276 233.739 81.7331 233.485 81.385C233.231 81.037 233.048 80.6424 232.946 80.2236C232.845 79.8049 232.827 79.3702 232.893 78.9445C232.959 78.5187 233.109 78.1102 233.333 77.7423C233.557 77.3743 233.852 77.0542 234.2 76.8" fill="#908E98"/>
<path d="M277.25 83.05C276.922 83.333 276.541 83.5486 276.129 83.6844C275.718 83.8202 275.283 83.8737 274.851 83.8416C274.419 83.8096 273.997 83.6927 273.61 83.4977C273.223 83.3027 272.878 83.0334 272.595 82.705C272.312 82.3767 272.097 81.9959 271.961 81.5843C271.825 81.1727 271.771 80.7383 271.803 80.3061C271.835 79.8738 271.952 79.4521 272.147 79.065C272.342 78.6779 272.612 78.333 272.94 78.05" fill="#908E98"/>
<path d="M265.51 74.7301C265.929 75.4926 266.028 76.3903 265.785 77.2258C265.542 78.0613 264.977 78.7661 264.215 79.1851C263.452 79.6041 262.555 79.7031 261.719 79.4603C260.884 79.2174 260.179 78.6526 259.76 77.8901" fill="#908E98"/>
<path d="M259.41 84.38C259.722 84.0826 260.089 83.8495 260.491 83.6941C260.893 83.5386 261.322 83.4639 261.753 83.4741C262.184 83.4843 262.608 83.5793 263.002 83.7536C263.397 83.9279 263.752 84.1782 264.05 84.49C264.347 84.8019 264.58 85.1694 264.736 85.5713C264.891 85.9733 264.966 86.402 264.956 86.8328C264.946 87.2637 264.851 87.6883 264.676 88.0825C264.502 88.4766 264.252 88.8326 263.94 89.13" fill="#908E98"/>
<path d="M241.2 59.8801C241.601 59.6612 242.043 59.5284 242.498 59.4902C242.953 59.4521 243.411 59.5093 243.842 59.6583C244.274 59.8073 244.67 60.0448 245.004 60.3556C245.339 60.6664 245.605 61.0436 245.785 61.4631C245.966 61.8826 246.056 62.3351 246.052 62.7917C246.047 63.2483 245.947 63.6989 245.759 64.1147C245.57 64.5305 245.296 64.9023 244.956 65.2063C244.615 65.5103 244.214 65.7397 243.78 65.8801" fill="#908E98"/>
<path d="M255.46 83.9001C254.696 84.2592 253.824 84.311 253.023 84.0448C252.222 83.7785 251.554 83.2146 251.157 82.4697C250.76 81.7247 250.664 80.8557 250.89 80.0424C251.116 79.2291 251.646 78.5337 252.37 78.1001" fill="#908E98"/>
<path d="M256.48 72.4701C256.175 72.1654 255.932 71.8036 255.767 71.4053C255.601 71.007 255.516 70.58 255.515 70.1486C255.515 69.7173 255.599 69.2901 255.764 68.8915C255.929 68.4928 256.17 68.1304 256.475 67.8251C256.78 67.5198 257.141 67.2775 257.54 67.112C257.938 66.9465 258.365 66.8611 258.796 66.8606C259.228 66.8601 259.655 66.9446 260.054 67.1093C260.452 67.2739 260.815 67.5154 261.12 67.8201" fill="#908E98"/>
<path d="M266.14 65.7201C265.835 65.4154 265.592 65.0536 265.427 64.6553C265.261 64.257 265.176 63.83 265.176 63.3986C265.175 62.9673 265.26 62.5401 265.424 62.1414C265.589 61.7428 265.83 61.3804 266.135 61.0751C266.44 60.7698 266.802 60.5275 267.2 60.362C267.598 60.1965 268.025 60.1111 268.457 60.1106C268.888 60.1101 269.315 60.1946 269.714 60.3593C270.112 60.5239 270.475 60.7654 270.78 61.0701" fill="#908E98"/>
<path d="M248.79 73.61C248.246 74.2903 247.455 74.7267 246.589 74.8233C245.724 74.9199 244.855 74.6687 244.175 74.125C243.495 73.5813 243.058 72.7896 242.962 71.9242C242.865 71.0587 243.116 70.1903 243.66 69.51" fill="#908E98"/>
<path d="M231.46 76.13C230.621 76.2413 229.771 76.0248 229.087 75.5255C228.403 75.0261 227.939 74.2825 227.789 73.4492C227.64 72.6159 227.817 71.757 228.285 71.0513C228.753 70.3456 229.474 69.8473 230.3 69.66" fill="#908E98"/>
<path d="M242.29 82.91C242.596 83.2527 242.826 83.6557 242.966 84.093C243.107 84.5304 243.153 84.9923 243.104 85.4488C243.054 85.9054 242.909 86.3464 242.678 86.7434C242.447 87.1403 242.135 87.4844 241.763 87.7533C241.391 88.0221 240.966 88.2098 240.517 88.3041C240.067 88.3985 239.603 88.3974 239.154 88.3009C238.705 88.2045 238.281 88.0148 237.91 87.7442C237.539 87.4736 237.229 87.1281 237 86.73" fill="#908E98"/>
<path d="M250 86.4301V94.0001" stroke="#F43939" stroke-width="1.5" stroke-linejoin="round"/>
<path d="M247.33 88.96C247.844 88.96 248.26 88.5436 248.26 88.03C248.26 87.5164 247.844 87.1 247.33 87.1C246.816 87.1 246.4 87.5164 246.4 88.03C246.4 88.5436 246.816 88.96 247.33 88.96Z" fill="#F43939"/>
<path d="M247.33 92.6C247.844 92.6 248.26 92.1836 248.26 91.67C248.26 91.1564 247.844 90.74 247.33 90.74C246.816 90.74 246.4 91.1564 246.4 91.67C246.4 92.1836 246.816 92.6 247.33 92.6Z" fill="#F43939"/>
<path d="M238.83 88.96C239.344 88.96 239.76 88.5436 239.76 88.03C239.76 87.5164 239.344 87.1 238.83 87.1C238.316 87.1 237.9 87.5164 237.9 88.03C237.9 88.5436 238.316 88.96 238.83 88.96Z" fill="#F43939"/>
<path d="M238.83 92.6C239.344 92.6 239.76 92.1836 239.76 91.67C239.76 91.1564 239.344 90.74 238.83 90.74C238.316 90.74 237.9 91.1564 237.9 91.67C237.9 92.1836 238.316 92.6 238.83 92.6Z" fill="#F43939"/>
<path d="M210.03 107.33L204.48 101.74" stroke="black" stroke-width="1.5" stroke-miterlimit="10" stroke-linecap="round"/>
<path d="M230.44 132.8L226.19 125.81" stroke="black" stroke-width="1.5" stroke-miterlimit="10" stroke-linecap="round"/>
<path d="M205.85 109.23L223.29 101.52" stroke="black" stroke-width="1.5" stroke-miterlimit="10" stroke-linecap="round"/>
<path d="M228.04 84.62L240.04 96.62" stroke="black" stroke-width="1.5" stroke-miterlimit="10" stroke-linecap="round"/>
<path d="M203.18 34.6801L202.85 36.8201C200.4 36.8201 199.15 37.6101 198.68 39.6801" stroke="black" stroke-width="1.5" stroke-linecap="round" stroke-linejoin="round"/>
<path d="M256.46 98.0601C258.1 103.453 261.6 106.543 266.96 107.33" stroke="#F43939" stroke-width="1.5" stroke-linecap="round" stroke-linejoin="round"/>
<path d="M247.44 105.69L211.3 122.49C210.94 122.654 210.62 122.893 210.359 123.19C210.098 123.487 209.903 123.836 209.787 124.214C209.671 124.592 209.636 124.99 209.685 125.382C209.733 125.775 209.865 126.152 210.07 126.49L219.07 141.49" stroke="#F43939" stroke-width="1.5" stroke-linecap="round" stroke-linejoin="round"/>
<path d="M308 128C308.106 127.609 308.13 127.201 308.07 126.8C308.01 126.4 307.867 126.016 307.651 125.674C307.435 125.332 307.15 125.038 306.814 124.812C306.478 124.586 306.099 124.432 305.7 124.36L300.12 123" stroke="black" stroke-width="1.5" stroke-linecap="round" stroke-linejoin="round"/>
<path d="M322 129H232" stroke="#908E98" stroke-width="1.5" stroke-miterlimit="10" stroke-linecap="round"/>
<path d="M272.708 32.3946C276.011 28.3678 275.261 22.2926 271.034 18.825C266.807 15.3575 260.702 15.8109 257.399 19.8376C254.096 23.8643 254.846 29.9396 259.073 33.4072C263.301 36.8747 269.405 36.4213 272.708 32.3946Z" fill="#A73F28"/>
<path d="M258.53 39.08C261.308 39.08 263.56 36.828 263.56 34.05C263.56 31.272 261.308 29.02 258.53 29.02C255.752 29.02 253.5 31.272 253.5 34.05C253.5 36.828 255.752 39.08 258.53 39.08Z" fill="black"/>
<path d="M258.52 59.1899H247.52C245.351 59.1899 243.27 58.3281 241.736 56.7941C240.202 55.26 239.34 53.1794 239.34 51.0099V39.5999C239.34 37.2342 240.28 34.9654 241.953 33.2925C243.625 31.6197 245.894 30.6799 248.26 30.6799H249.6C251.966 30.6799 254.235 31.6197 255.907 33.2925C257.58 34.9654 258.52 37.2342 258.52 39.5999V59.1899Z" fill="#F3B496"/>
<path d="M246.99 60.47L252.76 72.44L258.53 60.47V45.23H246.99V60.47Z" fill="#F3B496"/>
<path d="M256.27 50.63L253.72 44.26L237.4 40.72C237.403 37.6788 238.612 34.7629 240.762 32.6124C242.913 30.4619 245.829 29.2526 248.87 29.25H252.56C254.994 29.2511 257.364 30.027 259.327 31.4654C261.291 32.9037 262.745 34.9298 263.48 37.25L269.61 56.55H258.53L256.27 50.63Z" fill="#A73F28"/>
<path d="M258.53 53.43C260.86 53.43 262.75 51.5406 262.75 49.21C262.75 46.8793 260.86 44.99 258.53 44.99C256.199 44.99 254.31 46.8793 254.31 49.21C254.31 51.5406 256.199 53.43 258.53 53.43Z" fill="#F3B496"/>
<path d="M258.71 47.41L256.88 49.24" stroke="black" stroke-width="1.5" stroke-miterlimit="10" stroke-linecap="round"/>
<path d="M244.67 47.36C244.502 48.6329 243.868 49.7982 242.89 50.63L244.81 51.06" stroke="black" stroke-width="1.5" stroke-linecap="round" stroke-linejoin="round"/>
<path d="M244.53 53.8599L248.38 52.1899C248.38 52.1899 249.11 54.8499 247.49 55.1899C245.87 55.5299 244.53 53.8599 244.53 53.8599Z" fill="white"/>
<path d="M247.56 48.39C247.946 48.39 248.26 48.0766 248.26 47.69C248.26 47.3034 247.946 46.99 247.56 46.99C247.173 46.99 246.86 47.3034 246.86 47.69C246.86 48.0766 247.173 48.39 247.56 48.39Z" fill="black"/>
<path d="M241.61 48.39C241.997 48.39 242.31 48.0766 242.31 47.69C242.31 47.3034 241.997 46.99 241.61 46.99C241.223 46.99 240.91 47.3034 240.91 47.69C240.91 48.0766 241.223 48.39 241.61 48.39Z" fill="black"/>
<path d="M246.54 44.78L248.95 45.19" stroke="black" stroke-width="1.5" stroke-linecap="round" stroke-linejoin="round"/>
<path d="M240.55 44.9901L242.3 44.4301" stroke="black" stroke-width="1.5" stroke-linecap="round" stroke-linejoin="round"/>
<path d="M258.53 59.41C260.678 59.41 262.42 57.6684 262.42 55.52C262.42 53.3716 260.678 51.63 258.53 51.63C256.382 51.63 254.64 53.3716 254.64 55.52C254.64 57.6684 256.382 59.41 258.53 59.41Z" fill="#908E98"/>
<path d="M163.5 28.21V6.48999" stroke="#908E98" stroke-width="1.5" stroke-miterlimit="10" stroke-linecap="round"/>
<path d="M172.09 25.58L178.92 16.01" stroke="#908E98" stroke-width="1.5" stroke-miterlimit="10" stroke-linecap="round"/>
<path d="M154.91 25.58L148.08 16.01" stroke="#908E98" stroke-width="1.5" stroke-miterlimit="10" stroke-linecap="round"/>
</svg>
