<?xml version="1.0" encoding="UTF-8"?> <svg xmlns="http://www.w3.org/2000/svg" width="24" height="24" viewBox="0 0 24 24" fill="none"><path fill-rule="evenodd" clip-rule="evenodd" d="M2 22H21C21.5523 22 22 21.5523 22 21C22 20.4477 21.5523 20 21 20H3V3C3 2.44772 2.55228 2 2 2C1.44772 2 1 2.44772 1 3V21C1 21.5523 1.44772 22 2 22ZM17.64 6H22.5C22.6377 5.99172 22.7728 6.04072 22.8731 6.1354C22.9735 6.23008 23.0302 6.36203 23.03 6.5V11.37C23.0318 11.5727 22.9085 11.7555 22.72 11.83C22.6575 11.8442 22.5925 11.8442 22.53 11.83C22.3974 11.8316 22.2703 11.7771 22.18 11.68L20.4 9.91L14.99 14.91C14.6094 15.2535 14.0306 15.2535 13.65 14.91L11.4 12.91L6.12 18C5.92938 18.1768 5.67995 18.2765 5.42 18.28C5.14781 18.279 4.88781 18.167 4.7 17.97C4.51069 17.7822 4.4042 17.5266 4.4042 17.26C4.4042 16.9934 4.51069 16.7378 4.7 16.55L10.64 10.8C11.0236 10.4443 11.6164 10.4443 12 10.8L14.32 12.82L19 8.52L17.29 6.85C17.1406 6.71263 17.0962 6.49487 17.18 6.31C17.2545 6.12147 17.4373 5.99824 17.64 6Z" fill="#2B273C"></path></svg> 